<svg width="512" height="512" xmlns="http://www.w3.org/2000/svg">
  <!-- Background gradient -->
  <defs>
    <linearGradient id="grad" x1="0%" y1="0%" x2="100%" y2="100%">
      <stop offset="0%" style="stop-color:#667eea;stop-opacity:1" />
      <stop offset="100%" style="stop-color:#764ba2;stop-opacity:1" />
    </linearGradient>
  </defs>
  
  <!-- Background -->
  <rect width="512" height="512" rx="80" fill="url(#grad)"/>
  
  <!-- Business card icon -->
  <rect x="96" y="156" width="320" height="200" rx="16" fill="white" opacity="0.2"/>
  <rect x="80" y="140" width="320" height="200" rx="16" fill="white"/>
  
  <!-- Text lines (simulating business card) -->
  <rect x="120" y="180" width="140" height="16" rx="4" fill="#667eea"/>
  <rect x="120" y="210" width="200" height="12" rx="4" fill="#999"/>
  <rect x="120" y="236" width="160" height="12" rx="4" fill="#999"/>
  <rect x="120" y="262" width="180" height="12" rx="4" fill="#999"/>
  
  <!-- QR Code icon (top right) -->
  <rect x="320" y="180" width="50" height="50" rx="4" fill="#667eea" opacity="0.2"/>
  <rect x="322" y="182" width="10" height="10" fill="#667eea"/>
  <rect x="338" y="182" width="10" height="10" fill="#667eea"/>
  <rect x="354" y="182" width="10" height="10" fill="#667eea"/>
  <rect x="322" y="198" width="10" height="10" fill="#667eea"/>
  <rect x="354" y="198" width="10" height="10" fill="#667eea"/>
  <rect x="322" y="214" width="10" height="10" fill="#667eea"/>
  <rect x="338" y="214" width="10" height="10" fill="#667eea"/>
  <rect x="354" y="214" width="10" height="10" fill="#667eea"/>
</svg>

